# xmcd CD database file
#
# Track frame offsets:
#	150
#	23645
#	47352
#
# Disc length: 801 seconds
#
# Revision: 0
# Processed by: cddbd v1.5.1PL0 Copyright (c) Steve Scherf et al.
# Submitted via: CDex 1.51
#
DISCID=15031f03
DTITLE=米良美一 - 映画「四国」主題歌　ぼくは雨となり星となる
DYEAR=1999
DGENRE=JPop
TTITLE0=ぼくは雨となり星となる
TTITLE1=ぼくは雨となり星となる（カラオケ）
TTITLE2=Childhood（インスト）
EXTD=YEAR: 1999
EXTT0=
EXTT1=
EXTT2=
PLAYORDER=
